<svg display="none" xmlns="http://www.w3.org/2000/svg">

  <symbol id="info1" viewBox="0 0 48 48">
    <g>
      <path
        d="M46.967 22.2528C50.602 35.3748 44.314 47.9998 33.295 47.9998C27.198 47.9998 24.595 44.4958 17.898 36.3368C11.2 28.1778 1.65 39.5218 0 22.2528C1.386 6.33979 18.652 -8.06421 26.668 5.22579C33.966 17.3258 43.333 9.13079 46.968 22.2528H46.967Z"
        fill="#FFDD76" />
      <path
        d="M23.493 15.5152H23.494C23.5535 15.4962 23.6175 15.4962 23.677 15.5152L34.313 18.9032L34.35 18.9152L34.389 18.9212C34.4653 18.9334 34.5345 18.9728 34.584 19.0322C34.6393 19.0985 34.67 19.1818 34.671 19.2682V19.2822L34.672 19.2972V28.3772L34.915 28.5232C35.262 28.7332 35.5 29.1192 35.5 29.5712C35.5 29.6982 35.435 29.9502 35.281 30.3112C35.136 30.6542 34.939 31.0352 34.736 31.3962C34.601 31.6382 34.466 31.8672 34.345 32.0652C34.225 31.8672 34.089 31.6382 33.953 31.3972C33.7525 31.0449 33.5706 30.6824 33.408 30.3112C33.255 29.9502 33.19 29.6982 33.19 29.5712C33.19 29.1192 33.428 28.7322 33.775 28.5232L34.017 28.3772V19.7622L33.365 19.9692L23.678 23.0562C23.6182 23.0753 23.5538 23.0753 23.494 23.0562L12.735 19.6282C12.6678 19.6057 12.6096 19.5623 12.569 19.5042C12.5238 19.4403 12.4995 19.3639 12.4995 19.2857C12.4995 19.2074 12.5238 19.131 12.569 19.0672C12.6096 19.0091 12.6678 18.9656 12.735 18.9432L23.493 15.5152ZM17.464 28.2452V23.9792L22.702 25.6482C23.2766 25.8324 23.8944 25.8324 24.469 25.6482L29.707 23.9792V28.2452L29.582 28.2572C29.2 28.3002 28.659 28.3842 28.012 28.5522C26.796 28.8662 25.202 29.4772 23.586 30.6592C22.2567 29.6835 20.7545 28.9686 19.159 28.5522C18.6026 28.4068 18.036 28.3042 17.464 28.2452Z"
        fill="#63522B" stroke="#63522B" />
    </g>
  </symbol>


  <symbol id="info2" viewBox="0 0 48 48">
    <g>
      <path
        d="M33.295 48C44.314 48 50.602 35.375 46.967 22.253C43.333 9.13096 33.966 17.326 26.667 5.22596C18.654 -8.06404 1.387 6.33896 0 22.253C0.53 30.835 7.93 48 33.295 48Z"
        fill="#FFDD76" />
      <mask id="mask0_8_92" style="mask-type:alpha" maskUnits="userSpaceOnUse" x="12" y="14" width="24" height="20">
        <path
          d="M32 16V23L36 19.5L32 16ZM18.75 14C18.5511 14 18.3603 14.079 18.2197 14.2197C18.079 14.3603 18 14.5511 18 14.75V33.25C18 33.4489 18.079 33.6397 18.2197 33.7803C18.3603 33.921 18.5511 34 18.75 34H29.25C29.4489 34 29.6397 33.921 29.7803 33.7803C29.921 33.6397 30 33.4489 30 33.25V14.75C30 14.5511 29.921 14.3603 29.7803 14.2197C29.6397 14.079 29.4489 14 29.25 14H18.75ZM12 19V20.5H13.5V19H12ZM15 19V20.5H16.5V19H15ZM19.5 15.5H28.5V32.5H19.5V15.5ZM21.25 17C21.1483 16.9947 21.0465 17.0102 20.9509 17.0456C20.8554 17.0809 20.768 17.1353 20.6941 17.2054C20.6202 17.2756 20.5614 17.3601 20.5212 17.4537C20.481 17.5473 20.4603 17.6481 20.4603 17.75C20.4603 17.8519 20.481 17.9527 20.5212 18.0463C20.5614 18.1399 20.6202 18.2244 20.6941 18.2946C20.768 18.3647 20.8554 18.4191 20.9509 18.4544C21.0465 18.4898 21.1483 18.5053 21.25 18.5H26.75C26.8517 18.5053 26.9535 18.4898 27.0491 18.4544C27.1446 18.4191 27.232 18.3647 27.3059 18.2946C27.3798 18.2244 27.4386 18.1399 27.4788 18.0463C27.519 17.9527 27.5397 17.8519 27.5397 17.75C27.5397 17.6481 27.519 17.5473 27.4788 17.4537C27.4386 17.3601 27.3798 17.2756 27.3059 17.2054C27.232 17.1353 27.1446 17.0809 27.0491 17.0456C26.9535 17.0102 26.8517 16.9947 26.75 17H21.25ZM16 24L12 27.5L16 31V24ZM31.5 27V28.5H33V27H31.5ZM34.5 27V28.5H36V27H34.5Z"
          fill="white" />
      </mask>
      <g mask="url(#mask0_8_92)">
        <path
          d="M32 16V23L36 19.5L32 16ZM18.75 14C18.5511 14 18.3603 14.079 18.2197 14.2197C18.079 14.3603 18 14.5511 18 14.75V33.25C18 33.4489 18.079 33.6397 18.2197 33.7803C18.3603 33.921 18.5511 34 18.75 34H29.25C29.4489 34 29.6397 33.921 29.7803 33.7803C29.921 33.6397 30 33.4489 30 33.25V14.75C30 14.5511 29.921 14.3603 29.7803 14.2197C29.6397 14.079 29.4489 14 29.25 14H18.75ZM12 19V20.5H13.5V19H12ZM15 19V20.5H16.5V19H15ZM19.5 15.5H28.5V32.5H19.5V15.5ZM21.25 17C21.1483 16.9947 21.0465 17.0102 20.9509 17.0456C20.8554 17.0809 20.768 17.1353 20.6941 17.2054C20.6202 17.2756 20.5614 17.3601 20.5212 17.4537C20.481 17.5473 20.4603 17.6481 20.4603 17.75C20.4603 17.8519 20.481 17.9527 20.5212 18.0463C20.5614 18.1399 20.6202 18.2244 20.6941 18.2946C20.768 18.3647 20.8554 18.4191 20.9509 18.4544C21.0465 18.4898 21.1483 18.5053 21.25 18.5H26.75C26.8517 18.5053 26.9535 18.4898 27.0491 18.4544C27.1446 18.4191 27.232 18.3647 27.3059 18.2946C27.3798 18.2244 27.4386 18.1399 27.4788 18.0463C27.519 17.9527 27.5397 17.8519 27.5397 17.75C27.5397 17.6481 27.519 17.5473 27.4788 17.4537C27.4386 17.3601 27.3798 17.2756 27.3059 17.2054C27.232 17.1353 27.1446 17.0809 27.0491 17.0456C26.9535 17.0102 26.8517 16.9947 26.75 17H21.25ZM16 24L12 27.5L16 31V24ZM31.5 27V28.5H33V27H31.5ZM34.5 27V28.5H36V27H34.5Z"
          fill="#63522B" stroke="#63522B" stroke-width="6.25" />
      </g>
    </g>
  </symbol>

  <symbol id="info3" viewBox="0 0 48 48">
    <g>
      <path
        d="M46.967 25.747C50.602 12.625 44.314 0 33.295 0C27.198 0 24.595 3.504 17.898 11.663C11.2 19.822 1.65 8.478 0 25.747C1.386 41.66 18.652 56.064 26.668 42.774C33.966 30.674 43.333 38.868 46.968 25.747H46.967Z"
        fill="#FFDD76" />
      <path
        d="M21.65 14.5588H22.175L22.374 14.0738C22.704 13.2678 23.284 12.7808 24 12.7808C24.716 12.7808 25.296 13.2678 25.626 14.0738L25.825 14.5588H32C32.257 14.5588 32.495 14.6388 32.692 14.7738H28.674V18.3298H19.327V14.7738H15.308C15.505 14.6378 15.743 14.5588 16 14.5588H19.455H21.65ZM32.963 15.5558V15.0308C33.123 15.2368 33.219 15.4958 33.219 15.7778V33.9998C33.219 34.2808 33.123 34.5398 32.963 34.7468V34.2218V15.5558ZM32.182 35.0038H32.692C32.4886 35.1442 32.2472 35.2192 32 35.2188H16C15.7529 35.2188 15.5116 35.1439 15.308 35.0038H15.818H32.182ZM15.037 34.2218V34.7468C14.8705 34.5334 14.78 34.2705 14.78 33.9998V15.7778C14.78 15.4958 14.876 15.2378 15.036 15.0308V15.5558L15.037 34.2218ZM28.417 15.5558V14.7738H25.69V14.6668C25.69 13.7168 24.928 12.9968 24 12.9968C23.072 12.9968 22.31 13.7168 22.31 14.6668V14.7738H19.582V18.1148H28.418V17.3328L28.417 15.5558ZM22.545 29.0788L23.091 29.6128L23.637 29.0788L28.812 24.0188L28.98 24.1838L23.09 29.9418L19.93 26.8508L20.097 26.6858L22.545 29.0788Z"
        fill="#63522B" stroke="#63522B" stroke-width="1.563" />
    </g>
  </symbol>

</svg>