<svg display="none" xmlns="http://www.w3.org/2000/svg">

  <symbol id="reliability1" viewBox="0 0 48 48">
    <g>
      <path
        d="M46.967 25.747C50.602 12.625 44.314 0 33.295 0C27.198 0 24.595 3.504 17.898 11.663C11.2 19.822 1.65 8.478 0 25.747C1.386 41.66 18.652 56.064 26.668 42.774C33.966 30.674 43.333 38.868 46.968 25.747H46.967Z"
        fill="#E2F9C3" />
      <path fill-rule="evenodd" clip-rule="evenodd"
        d="M34 15C34 15.2652 33.8946 15.5196 33.7071 15.7071C33.5196 15.8946 33.2652 16 33 16C32.7348 16 32.4804 15.8946 32.2929 15.7071C32.1054 15.5196 32 15.2652 32 15C32 14.7348 32.1054 14.4804 32.2929 14.2929C32.4804 14.1054 32.7348 14 33 14C33.2652 14 33.5196 14.1054 33.7071 14.2929C33.8946 14.4804 34 14.7348 34 15ZM35 15C35 15.5304 34.7893 16.0391 34.4142 16.4142C34.0391 16.7893 33.5304 17 33 17C32.4696 17 31.9609 16.7893 31.5858 16.4142C31.2107 16.0391 31 15.5304 31 15C31 14.4696 31.2107 13.9609 31.5858 13.5858C31.9609 13.2107 32.4696 13 33 13C33.5304 13 34.0391 13.2107 34.4142 13.5858C34.7893 13.9609 35 14.4696 35 15ZM15 19.5C15.3978 19.5 15.7794 19.342 16.0607 19.0607C16.342 18.7794 16.5 18.3978 16.5 18C16.5 17.6022 16.342 17.2206 16.0607 16.9393C15.7794 16.658 15.3978 16.5 15 16.5C14.6022 16.5 14.2206 16.658 13.9393 16.9393C13.658 17.2206 13.5 17.6022 13.5 18C13.5 18.3978 13.658 18.7794 13.9393 19.0607C14.2206 19.342 14.6022 19.5 15 19.5ZM15 21C15.7956 21 16.5587 20.6839 17.1213 20.1213C17.6839 19.5587 18 18.7956 18 18C18 17.2044 17.6839 16.4413 17.1213 15.8787C16.5587 15.3161 15.7956 15 15 15C14.2044 15 13.4413 15.3161 12.8787 15.8787C12.3161 16.4413 12 17.2044 12 18C12 18.7956 12.3161 19.5587 12.8787 20.1213C13.4413 20.6839 14.2044 21 15 21ZM26.5 18C24.319 18 22.94 18.77 22.103 19.707C21.807 20.037 21.593 20.374 21.436 20.677C20.527 20.411 19.226 20.314 17.946 21.167C16.391 22.204 15.759 23.634 15.568 24.772C14.857 25.014 14.2017 25.3962 13.641 25.896C12.723 26.722 12 27.97 12 29.691C12 31.699 12.827 33.094 14.08 33.944C15.271 34.753 16.746 35 18 35H30.5C31.64 35 32.982 34.576 34.054 33.736C35.153 32.875 36 31.546 36 29.779C36 28.115 35.402 26.789 34.433 25.882C33.8168 25.3103 33.0635 24.9074 32.246 24.712C32.4 23.452 32.095 22.065 31.433 20.906C30.516 19.303 28.838 18 26.5 18ZM22.959 22.284L22.977 22.22C23.042 21.986 23.177 21.507 23.594 21.04C24.022 20.56 24.842 20 26.5 20C28 20 29.072 20.807 29.696 21.899C30.346 23.035 30.432 24.345 30.08 25.17L29.486 26.562H31C31.774 26.562 32.522 26.832 33.067 27.342C33.597 27.839 34 28.62 34 29.779C34 30.837 33.514 31.619 32.82 32.161C32.101 32.725 31.193 33 30.5 33H18C16.961 33 15.937 32.787 15.202 32.289C14.528 31.83 14 31.072 14 29.69C14 28.59 14.44 27.867 14.979 27.382C15.546 26.871 16.238 26.617 16.661 26.549L17.5 26.412V25.562C17.5 24.874 17.794 23.672 19.055 22.832C20.045 22.171 21.142 22.642 21.469 22.846L22.585 23.546L22.959 22.284ZM18.72 27.64C18.72 25.91 19.647 24.844 21.15 24.844C22.378 24.844 23.317 25.682 23.396 26.84H22.342C22.238 26.229 21.768 25.826 21.15 25.826C20.336 25.826 19.83 26.52 19.83 27.641C19.83 28.763 20.336 29.459 21.154 29.459C21.774 29.459 22.241 29.084 22.345 28.498H23.4C23.31 29.648 22.4 30.44 21.15 30.44C19.65 30.44 18.72 29.374 18.72 27.64ZM24 27.64C24 25.913 24.938 24.844 26.404 24.844C27.877 24.844 28.8 25.917 28.8 27.64C28.8 29.366 27.88 30.44 26.404 30.44C24.924 30.44 24 29.366 24 27.64ZM27.735 27.64C27.735 26.526 27.217 25.822 26.404 25.822C25.594 25.822 25.069 26.526 25.069 27.64C25.069 28.75 25.584 29.462 26.404 29.462C27.217 29.462 27.735 28.751 27.735 27.64ZM29.28 29.296C29.28 28.638 29.756 28.205 30.48 28.205C31.181 28.205 31.631 28.583 31.631 29.169C31.631 29.572 31.426 29.899 30.863 30.339L30.496 30.669V30.731H31.68V31.457H29.341V30.813L30.233 29.998C30.69 29.592 30.799 29.449 30.799 29.255C30.799 29.057 30.651 28.921 30.442 28.921C30.22 28.921 30.069 29.071 30.069 29.291V29.312H29.28V29.296Z"
        fill="#3A8241" />
    </g>
  </symbol>

  <symbol id="reliability2" viewBox="0 0 48 48">
    <g>
      <path
        d="M1.033 32.952C-2.602 20.138 3.686 0 14.705 0C20.802 0 27.405 2.446 34.102 10.413C40.8 18.381 48 14.646 48 30.023C48 46.873 28.5 54.198 21.332 41.771C14.397 29.748 4.667 45.766 1.032 32.952H1.033Z"
        fill="#E2F9C3" />
      <mask id="mask0_1_48" style="mask-type:alpha" maskUnits="userSpaceOnUse" x="12" y="12" width="24" height="24">
        <path
          d="M24 12C22.83 12 21.784 12.78 21.084 14.01L18.428 18.66L20.045 19.62L22.67 15C23.143 14.167 23.62 13.92 23.998 13.92C24.378 13.92 24.854 14.167 25.326 15L28.213 20.07L26.741 21L31.36 23.88V18.12L29.8 19.08L26.914 14.01C26.215 12.78 25.17 12 24 12ZM18.399 20.61L13.78 23.49L15.195 24.36L12.625 28.89C11.929 30.116 11.774 31.474 12.365 32.52C12.957 33.566 14.155 34.08 15.541 34.08H21.228V32.16H15.541C14.585 32.16 14.131 31.845 13.953 31.53C13.777 31.215 13.741 30.683 14.213 29.85L16.753 25.35L18.399 26.37V20.61ZM33.122 25.02L31.562 26.01L33.786 29.85C34.262 30.686 34.222 31.215 34.046 31.53C33.869 31.845 33.414 32.16 32.458 32.16H27.695V30.24L23.075 33.12L27.695 36V34.08H32.458C33.844 34.08 35.042 33.566 35.633 32.52C36.225 31.474 36.073 30.12 35.373 28.89V28.86L33.122 25.02Z"
          fill="white" />
      </mask>
      <g mask="url(#mask0_1_48)">
        <path
          d="M24 12C22.83 12 21.784 12.78 21.084 14.01L18.428 18.66L20.045 19.62L22.67 15C23.143 14.167 23.62 13.92 23.998 13.92C24.378 13.92 24.854 14.167 25.326 15L28.213 20.07L26.741 21L31.36 23.88V18.12L29.8 19.08L26.914 14.01C26.215 12.78 25.17 12 24 12ZM18.399 20.61L13.78 23.49L15.195 24.36L12.625 28.89C11.929 30.116 11.774 31.474 12.365 32.52C12.957 33.566 14.155 34.08 15.541 34.08H21.228V32.16H15.541C14.585 32.16 14.131 31.845 13.953 31.53C13.777 31.215 13.741 30.683 14.213 29.85L16.753 25.35L18.399 26.37V20.61ZM33.122 25.02L31.562 26.01L33.786 29.85C34.262 30.686 34.222 31.215 34.046 31.53C33.869 31.845 33.414 32.16 32.458 32.16H27.695V30.24L23.075 33.12L27.695 36V34.08H32.458C33.844 34.08 35.042 33.566 35.633 32.52C36.225 31.474 36.073 30.12 35.373 28.89V28.86L33.122 25.02Z"
          fill="#3A8241" stroke="#3A8241" stroke-width="3.846" />
      </g>
    </g>
  </symbol>

  <symbol id="reliability3" viewBox="0 0 48 48">
    <g>
      <path
        d="M48 27.575C48 16.32 46.403 0 26.452 0C6.50096 0 17.257 19.311 5.12896 26.765C-8.19004 34.95 6.90896 48 22.195 48C33.97 48 48 42.173 48 27.575Z"
        fill="#E2F9C3" />
      <path
        d="M20.143 15C19.214 15 18.409 15.38 17.895 15.958C17.38 16.536 17.143 17.274 17.143 18C17.143 18.726 17.38 19.464 17.895 20.042C18.409 20.621 19.215 21 20.143 21C21.071 21 21.877 20.62 22.391 20.042C22.905 19.464 23.143 18.726 23.143 18C23.143 17.274 22.905 16.536 22.391 15.958C21.877 15.379 21.071 15 20.143 15ZM27.857 15C26.929 15 26.123 15.38 25.609 15.958C25.095 16.536 24.857 17.274 24.857 18C24.857 18.726 25.095 19.464 25.609 20.042C26.123 20.621 26.929 21 27.857 21C28.786 21 29.591 20.62 30.106 20.042C30.62 19.464 30.857 18.726 30.857 18C30.857 17.274 30.62 16.536 30.106 15.958C29.591 15.379 28.786 15 27.857 15ZM20.143 16.714C20.643 16.714 20.909 16.871 21.109 17.096C21.309 17.321 21.429 17.655 21.429 18C21.429 18.345 21.309 18.679 21.109 18.904C20.909 19.129 20.643 19.286 20.143 19.286C19.643 19.286 19.377 19.129 19.177 18.904C18.977 18.679 18.857 18.345 18.857 18C18.857 17.655 18.977 17.321 19.177 17.096C19.377 16.871 19.643 16.714 20.143 16.714ZM27.857 16.714C28.357 16.714 28.623 16.871 28.823 17.096C29.023 17.321 29.143 17.655 29.143 18C29.143 18.345 29.023 18.679 28.823 18.904C28.623 19.129 28.357 19.286 27.857 19.286C27.357 19.286 27.091 19.129 26.891 18.904C26.691 18.679 26.571 18.345 26.571 18C26.571 17.655 26.691 17.321 26.891 17.096C27.091 16.871 27.357 16.714 27.857 16.714ZM16.286 21C15.5 21 14.802 21.326 14.359 21.824C13.9368 22.3074 13.7072 22.9292 13.714 23.571C13.714 24.084 13.949 24.573 14.248 25.019C12.932 25.753 12 27.109 12 28.714H13.714C13.7124 28.3758 13.7779 28.0407 13.9066 27.728C14.0353 27.4153 14.2247 27.1312 14.4638 26.8921C14.703 26.6531 14.9872 26.4638 15.2999 26.3352C15.6127 26.2066 15.9478 26.1413 16.286 26.143C16.9332 26.1412 17.5569 26.3856 18.0306 26.8266C18.5043 27.2677 18.7926 27.8723 18.837 28.518C17.7469 29.7568 17.1448 31.3499 17.143 33H18.857C18.857 30.15 21.15 27.857 24 27.857C26.85 27.857 29.143 30.15 29.143 33H30.857C30.857 31.284 30.212 29.72 29.163 28.518C29.2074 27.8723 29.4957 27.2677 29.9694 26.8266C30.4431 26.3856 31.0668 26.1412 31.714 26.143C32.0522 26.1413 32.3873 26.2066 32.7001 26.3352C33.0128 26.4638 33.297 26.6531 33.5362 26.8921C33.7753 27.1312 33.9647 27.4153 34.0934 27.728C34.2221 28.0407 34.2876 28.3758 34.286 28.714H36C36 27.139 35.129 25.771 33.854 25.026C34.144 24.584 34.286 24.076 34.286 23.571C34.2931 22.9292 34.0635 22.3072 33.641 21.824C33.198 21.326 32.5 21 31.714 21C30.928 21 30.23 21.326 29.787 21.824C29.3652 22.3076 29.136 22.9294 29.143 23.571C29.143 24.076 29.285 24.584 29.575 25.026C28.7098 25.5292 28.0473 26.3186 27.702 27.258C27.3605 27.0319 26.9993 26.8367 26.623 26.675C27.1457 26.0434 27.4309 25.2488 27.429 24.429C27.429 23.595 27.155 22.75 26.569 22.092C25.985 21.432 25.072 21 24 21C22.928 21 22.016 21.433 21.43 22.092C20.845 22.75 20.571 23.595 20.571 24.429C20.571 25.228 20.84 26.029 21.377 26.675C20.9986 26.8376 20.6355 27.0337 20.292 27.261C19.9172 26.3072 19.2207 25.5144 18.323 25.02C18.623 24.573 18.857 24.084 18.857 23.571C18.857 22.952 18.655 22.321 18.213 21.824C17.77 21.326 17.071 21 16.286 21ZM16.286 22.714C16.643 22.714 16.802 22.817 16.93 22.962C17.059 23.107 17.143 23.333 17.143 23.572C17.143 23.811 17.059 24.036 16.93 24.181C16.802 24.326 16.643 24.429 16.286 24.429C15.929 24.429 15.77 24.326 15.641 24.181C15.512 24.036 15.429 23.81 15.429 23.571C15.429 23.332 15.513 23.107 15.641 22.962C15.769 22.817 15.929 22.714 16.286 22.714ZM24 22.714C24.643 22.714 25.016 22.924 25.287 23.23C25.558 23.536 25.714 23.976 25.714 24.429C25.714 24.882 25.559 25.322 25.287 25.627C25.015 25.932 24.643 26.143 24 26.143C23.357 26.143 22.984 25.933 22.713 25.627C22.442 25.321 22.286 24.881 22.286 24.429C22.286 23.977 22.441 23.535 22.713 23.229C22.985 22.923 23.357 22.714 24 22.714ZM31.714 22.714C32.071 22.714 32.23 22.817 32.359 22.962C32.488 23.107 32.571 23.333 32.571 23.572C32.571 23.811 32.487 24.036 32.359 24.181C32.231 24.326 32.071 24.429 31.714 24.429C31.357 24.429 31.198 24.326 31.07 24.181C30.941 24.036 30.857 23.81 30.857 23.571C30.857 23.332 30.941 23.107 31.07 22.962C31.198 22.817 31.357 22.714 31.714 22.714Z"
        fill="#3A8241" />
    </g>
  </symbol>

  <symbol id="leaf" viewBox="0 0 43 41">
    <path
      d="M25.034 0.476562L23.914 0.733635C23.914 0.733635 15.051 2.63717 11.184 9.33706C6.776 16.9752 11.72 24.2783 11.72 24.2783L12.87 25.9657L14.315 24.5123C14.315 24.5123 15.59 23.172 17.985 22.3577C20.381 21.5435 23.721 21.2744 28.078 23.7901C34.566 27.5372 37.096 33.6129 37.839 35.5695C35.819 36.4797 28.531 39.4656 21.405 35.3504C18.158 33.4759 16.389 31.5213 15.401 30.1979C18.119 29.8248 20.539 30.1239 22.587 30.6751C26.907 31.8364 29.438 34.1491 29.438 34.1491L31.691 31.7184C31.691 31.7184 30.908 30.9722 29.481 30.0799C27.6036 28.9066 25.5652 28.0137 23.43 27.4292C15.401 26.2138 4.394 25.4936 0 38.0131L4.395 38.0442C5.985 33.5589 8.29701 31.6824 11.329 31.0892C12.312 32.5896 15.301 35.6785 19.737 38.2402C29.769 44.0338 40.919 38.0101 40.919 38.0101L42.129 37.384L41.735 36.0716C41.735 36.0716 38.697 26.0688 29.745 20.8993C28.3147 20.0724 26.7767 19.4476 25.175 19.0428C26.116 17.8995 27.075 16.4741 27.743 14.3835C29.984 7.41352 25.709 1.40783 25.709 1.40783L25.034 0.476562ZM23.469 4.44968C24.23 5.77006 25.915 9.03898 24.539 13.3162C23.849 15.4558 22.842 16.8602 22.009 17.6974C21.179 18.5337 20.682 18.7367 20.682 18.7367C19.342 18.8127 17.95 18.8447 16.896 19.1998C16.642 19.2859 16.406 19.4059 16.174 19.5049C16.581 18.6037 17.014 17.7094 17.497 16.8972C18.2421 15.6379 19.0487 14.416 19.914 13.2362L17.282 11.1736C17.282 11.1736 15.969 12.8841 14.612 15.1707C13.9821 16.2341 13.4099 17.3306 12.898 18.4556C12.4 16.5721 12.35 14.0444 14.096 11.0195C16.523 6.81335 21.746 4.99084 23.469 4.44968Z"
      fill="#232B30" />
  </symbol>

  <symbol id="hands" viewBox="0 0 38 38">
    <path
      d="M17.12 0.730181C23.88 3.88318 25.443 7.81618 25.776 9.88018C26.152 12.2362 25.321 14.0172 24.493 14.8242C23.655 15.6442 22.771 16.0582 21.865 16.0582C21.604 16.0582 21.359 16.0232 21.132 15.9652L16.161 1.48018C16.1438 1.35495 16.1593 1.22739 16.2061 1.10996C16.2529 0.992529 16.3294 0.889241 16.428 0.81018L17.12 0.730181ZM17.12 0.728181C17.0083 0.676728 16.8846 0.657156 16.7624 0.671627C16.6403 0.686098 16.5246 0.734048 16.428 0.81018L17.12 0.728181ZM17.12 0.728181L16.908 1.18118C23.528 4.27118 24.977 8.06918 25.282 9.95718C25.635 12.1652 24.848 13.7792 24.144 14.4652H24.143C23.371 15.2222 22.606 15.5572 21.865 15.5572C21.6461 15.5568 21.4281 15.5272 21.217 15.4692C21.891 11.2842 21.289 8.27118 20.109 5.18918C20.0547 5.04055 19.971 4.90436 19.8629 4.78873C19.7549 4.6731 19.6247 4.58039 19.4801 4.5161C19.3355 4.45182 19.1794 4.41728 19.0212 4.41455C18.8629 4.41181 18.7058 4.44094 18.559 4.50018L18.552 4.50318C18.2608 4.63028 18.0301 4.86513 17.9082 5.15854C17.7863 5.45194 17.7826 5.78115 17.898 6.07718C19.023 9.01718 19.532 11.7172 18.761 15.7412C18.299 15.8802 17.841 15.9992 17.406 15.9992C16.27 15.9992 15.339 15.6322 14.641 14.9942C13.941 14.3542 13.445 13.4132 13.241 12.2192C12.713 9.12518 14.065 6.97518 15.241 5.12718L15.263 5.09218C15.647 4.48818 16.029 3.88618 16.295 3.30218C16.568 2.70418 16.744 2.07218 16.656 1.41418C16.6502 1.3751 16.6545 1.33519 16.6685 1.29825C16.6825 1.26131 16.7057 1.22857 16.736 1.20318L16.428 0.81018L17.12 0.728181ZM17.12 0.728181L16.909 1.18218C16.8809 1.16926 16.8498 1.16409 16.819 1.16718C16.789 1.17173 16.7607 1.18415 16.737 1.20318L16.428 0.81018L17.12 0.728181ZM20.559 16.3022C20.5153 16.2846 20.472 16.2663 20.429 16.2472L20.324 16.2022C20.233 16.2522 20.138 16.2992 20.041 16.3432L20.559 16.3022ZM20.559 16.3022L20.16 15.7202C20.146 15.7982 20.1317 15.8762 20.117 15.9542L20.056 16.0592L20.093 16.0802L20.041 16.3432L20.559 16.3022ZM20.559 16.3022C20.2952 17.6115 19.9566 18.9046 19.545 20.1752L20.559 16.3022ZM20.559 16.3022L19.545 20.1752L20.559 16.3022ZM20.041 16.3432C19.7844 17.5863 19.4599 18.8145 19.069 20.0222L20.041 16.3432ZM20.041 16.3432C19.905 16.4053 19.7665 16.462 19.626 16.5132L20.041 16.3432ZM19.069 20.0222L19.626 16.5122L19.069 20.0222ZM19.069 20.0222C19.037 20.1212 18.957 20.1662 18.891 20.1662C18.8759 20.1658 18.861 20.1628 18.847 20.1572L18.838 20.1542C18.753 20.1242 18.675 20.0082 18.718 19.8702C19.0744 18.7701 19.3761 17.6531 19.622 16.5232L19.069 20.0222ZM19.069 20.0222L19.622 16.5222L19.069 20.0222ZM19.626 16.5122L19.624 16.5222H19.622L19.626 16.5122ZM19.626 16.5122L19.622 16.5222L19.626 16.5122ZM19.545 20.1752C19.502 20.3157 19.4155 20.439 19.298 20.5272C19.1805 20.6155 19.038 20.6641 18.891 20.6662C18.8179 20.6655 18.7454 20.652 18.677 20.6262C18.315 20.5032 18.122 20.0962 18.241 19.7192L19.545 20.1752ZM2.26101 24.0002L2.66201 23.7022L2.65001 23.6852L2.63701 23.6702L2.50401 23.5202C2.12501 23.0922 1.82601 22.7532 1.59601 22.2752C1.34601 21.7552 1.16701 21.0342 1.16701 19.8342V9.83418C1.16701 9.11718 1.40201 8.63018 1.72701 8.32118C2.05701 8.00718 2.52501 7.83418 3.05801 7.83418C3.59101 7.83418 4.05801 8.00718 4.38901 8.32118C4.71401 8.63118 4.94901 9.11718 4.94901 9.83418V16.9692C4.91665 16.9863 4.88497 17.0047 4.85401 17.0242C4.67813 17.1396 4.52154 17.282 4.39001 17.4462C4.07826 17.8397 3.86378 18.3012 3.76401 18.7932C3.52701 19.9002 3.77901 21.3162 5.07201 22.6832L8.56801 26.5862L8.57101 26.5902C8.67557 26.7074 8.80375 26.8012 8.94714 26.8653C9.09053 26.9295 9.24587 26.9625 9.40296 26.9623C9.56004 26.9621 9.7153 26.9287 9.85853 26.8642C10.0018 26.7997 10.1297 26.7057 10.234 26.5882C10.4406 26.356 10.5544 26.0559 10.5539 25.7451C10.5533 25.4343 10.4384 25.1346 10.231 24.9032L6.41301 20.6612L6.41001 20.6582C5.87801 20.0782 5.87501 19.1432 6.42301 18.5432L6.42401 18.5422C6.49601 18.4622 6.73901 18.2412 7.07601 18.1802C7.36901 18.1272 7.85101 18.1742 8.48601 18.8362L12.301 23.0912L12.306 23.0962L12.311 23.1012C13.946 24.8212 15.311 26.9462 15.311 29.8332V36.5002C15.311 36.5962 15.311 36.6602 15.304 36.7182C15.302 36.7429 15.2963 36.7672 15.287 36.7902C15.2004 36.8237 15.1078 36.8387 15.015 36.8342H8.63801C8.59656 36.8347 8.55513 36.8324 8.51401 36.8272C8.476 36.823 8.43889 36.8129 8.40401 36.7972C8.38929 36.7915 8.37671 36.7814 8.36801 36.7682C8.36301 36.7602 8.34101 36.7202 8.34101 36.6182V31.3362L8.24401 31.2042C7.83201 30.6442 6.43501 28.7682 5.14401 27.0332L3.41801 24.7162L2.86801 23.9782L2.71601 23.7732L2.67601 23.7202L2.66601 23.7062L2.66301 23.7032V23.7022L2.26101 24.0002ZM33.051 16.9692V9.83418C33.051 9.11718 33.286 8.63018 33.611 8.32118C33.941 8.00718 34.409 7.83418 34.942 7.83418C35.475 7.83418 35.942 8.00718 36.273 8.32118C36.598 8.63118 36.833 9.11718 36.833 9.83418V19.8342C36.833 21.0342 36.655 21.7542 36.405 22.2752C36.175 22.7532 35.875 23.0922 35.497 23.5202L35.364 23.6702L35.351 23.6852L35.339 23.7022L35.739 24.0002L35.339 23.7022H35.338L35.335 23.7062L35.325 23.7202L35.285 23.7732L35.133 23.9782L34.583 24.7162L32.857 27.0332C31.8215 28.4216 30.7882 29.8116 29.757 31.2032L29.66 31.3362V36.6172C29.66 36.7202 29.638 36.7602 29.632 36.7682C29.6238 36.7808 29.612 36.7906 29.598 36.7962C29.5628 36.812 29.5254 36.8221 29.487 36.8262C29.4459 36.8314 29.4045 36.8337 29.363 36.8332H22.986C22.8933 36.838 22.8007 36.8234 22.714 36.7902C22.7048 36.7672 22.6991 36.7429 22.697 36.7182C22.6898 36.6457 22.6871 36.5729 22.689 36.5002V29.8332C22.689 26.9462 24.054 24.8202 25.689 23.1012L25.695 23.0962L25.7 23.0912L29.515 18.8362C30.15 18.1742 30.632 18.1272 30.925 18.1802C31.262 18.2402 31.505 18.4602 31.581 18.5432C32.126 19.1432 32.123 20.0782 31.593 20.6592L31.591 20.6612L27.77 24.9042H27.768C27.5613 25.1359 27.4471 25.4356 27.4471 25.7462C27.4471 26.0567 27.5613 26.3564 27.768 26.5882C27.8723 26.7055 28.0002 26.7994 28.1433 26.8638C28.2865 26.9282 28.4416 26.9616 28.5986 26.9618C28.7555 26.962 28.9107 26.9289 29.054 26.8649C29.1973 26.8009 29.3255 26.7072 29.43 26.5902L29.433 26.5862L32.928 22.6822C34.222 21.3162 34.473 19.9002 34.237 18.7932C34.1368 18.3014 33.922 17.8403 33.61 17.4472C33.4786 17.2827 33.322 17.1399 33.146 17.0242C33.1151 17.0046 33.0834 16.9863 33.051 16.9692Z"
      fill="#2C70C1" stroke="#2C70C1" />
  </symbol>


</svg>