<svg display="none" xmlns="http://www.w3.org/2000/svg">

  <symbol id="why_we1" viewBox="0 0 48 48">
    <path
      d="M46.967 22.2534C50.602 35.3754 44.314 48.0004 33.295 48.0004C27.198 48.0004 18.5 47.0004 14.898 38.3374C11.427 29.9904 0.5 37.5004 0 20.2534C0 6.00042 20.876 -7.66358 26.668 5.22642C32.46 18.1154 43.333 9.13142 46.968 22.2534H46.967Z"
      fill="#E8F3FE" />
    <path
      d="M21.338 12.0002C21.338 12.0002 19.655 11.9602 18.706 13.0162C17.758 14.0712 17.903 15.8252 17.903 15.8252C17.903 15.8252 19.586 15.8682 20.535 14.8112C21.484 13.7542 21.338 12.0012 21.338 12.0012V12.0002ZM26.66 12.0002C26.66 12.0002 26.515 13.7552 27.463 14.8112C28.411 15.8672 30.093 15.8252 30.093 15.8252C30.093 15.8252 30.24 14.0722 29.292 13.0152C28.343 11.9602 26.66 12.0002 26.66 12.0002ZM15.463 13.1932C15.463 13.1932 14.349 14.5132 14.512 15.9522C14.675 17.3902 16.052 18.4022 16.052 18.4022L16.059 18.3922C16.349 18.6442 17.419 19.4872 18.597 19.3652C19.976 19.2222 20.97 17.8002 20.97 17.8002C20.97 17.8002 19.728 16.6122 18.35 16.7552C17.564 16.8372 16.912 17.3302 16.49 17.7422C16.78 17.2212 17.094 16.4542 17.003 15.6422C16.84 14.2032 15.463 13.1942 15.463 13.1942V13.1932ZM32.536 13.1932C32.536 13.1932 31.159 14.2052 30.996 15.6432C30.903 16.4562 31.216 17.2212 31.509 17.7422C31.086 17.3292 30.434 16.8372 29.649 16.7552C28.271 16.6122 27.028 17.8022 27.028 17.8022C27.028 17.8022 28.023 19.2242 29.401 19.3672C30.578 19.4892 31.649 18.6432 31.939 18.3932L31.946 18.4032C31.946 18.4032 33.323 17.3902 33.486 15.9522C33.65 14.5122 32.536 13.1932 32.536 13.1932ZM12.768 18.6142C12.768 18.6142 12.086 20.2242 12.654 21.5442C13.222 22.8662 14.826 23.3982 14.826 23.3982L14.833 23.3802C15.193 23.4952 16.491 23.8432 17.533 23.2572C18.751 22.5702 19.145 20.8592 19.145 20.8592C19.145 20.8592 17.562 20.2612 16.342 20.9482C15.752 21.2802 15.359 21.8512 15.107 22.3532C15.197 21.7972 15.215 21.1032 14.942 20.4692C14.375 19.1482 12.768 18.6142 12.768 18.6142ZM35.23 18.6142C35.23 18.6142 33.624 19.1482 33.056 20.4692C32.784 21.1012 32.802 21.7972 32.891 22.3532C32.639 21.8512 32.246 21.2802 31.656 20.9482C30.436 20.2612 28.853 20.8592 28.853 20.8592C28.853 20.8592 29.247 22.5712 30.466 23.2592C31.507 23.8442 32.805 23.4972 33.166 23.3822L33.172 23.4002C33.172 23.4002 34.777 22.8662 35.344 21.5452C35.913 20.2232 35.23 18.6142 35.23 18.6142ZM18.536 23.9542C18.536 23.9542 16.892 24.3252 16.205 25.5842C15.874 26.1902 15.829 26.8902 15.868 27.4542C15.665 26.9322 15.33 26.3312 14.781 25.9422C13.633 25.1302 12 25.5582 12 25.5582C12 25.5582 12.226 27.3022 13.374 28.1132C14.521 28.9262 16.156 28.4992 16.156 28.4992L16.153 28.4832C16.513 28.3832 17.796 27.9612 18.383 26.8832C19.069 25.6252 18.536 23.9552 18.536 23.9552V23.9542ZM29.462 23.9542C29.462 23.9542 28.93 25.6252 29.616 26.8842C30.204 27.9612 31.487 28.3842 31.847 28.4842L31.844 28.4992C31.844 28.4992 33.479 28.9272 34.626 28.1152C35.774 27.3032 36 25.5582 36 25.5582C36 25.5582 34.364 25.1302 33.217 25.9422C32.669 26.3322 32.334 26.9322 32.132 27.4552C32.172 26.8902 32.126 26.1902 31.795 25.5832C31.108 24.3252 29.462 23.9552 29.462 23.9552V23.9542ZM19.858 27.3842C19.858 27.3842 18.321 28.1022 17.898 29.4802C17.658 30.2662 17.83 31.0862 18.023 31.6552C17.682 31.1682 17.137 30.5622 16.387 30.3272C15.06 29.9112 13.624 30.8302 13.624 30.8302C13.624 30.8302 14.338 32.4232 15.665 32.8402C16.82 33.2012 18 32.5842 18.302 32.4102C18.893 33.0532 19.6 33.4852 20.356 33.7782C20.097 33.9882 19.868 34.2392 19.704 34.5642C19.6827 34.5986 19.6637 34.6344 19.647 34.6712L19.638 34.6872C19.5635 34.8594 19.5409 35.0496 19.5729 35.2345C19.6049 35.4194 19.69 35.591 19.818 35.7282C19.9579 35.8774 20.1464 35.9718 20.3497 35.9945C20.5529 36.0172 20.7576 35.9668 20.927 35.8522C21.0718 35.7541 21.1856 35.6168 21.255 35.4562C21.34 35.2592 21.575 35.0662 22.169 34.8902C22.64 34.7502 23.295 34.6552 23.999 34.5572C24.703 34.6552 25.358 34.7502 25.829 34.8902C26.422 35.0662 26.658 35.2602 26.743 35.4562H26.745C26.815 35.6182 26.929 35.7562 27.072 35.8522C27.2137 35.9482 27.3808 35.9997 27.552 36.0002C27.6696 35.9997 27.786 35.9754 27.8939 35.9286C28.0019 35.8819 28.0992 35.8137 28.18 35.7282C28.3095 35.5919 28.3957 35.4202 28.4275 35.2349C28.4594 35.0496 28.4355 34.859 28.359 34.6872H28.36L28.352 34.6712C28.3346 34.6322 28.3145 34.5945 28.292 34.5582C28.1334 34.2549 27.9117 33.9889 27.642 33.7782C28.398 33.4852 29.105 33.0532 29.696 32.4092C29.996 32.5832 31.176 33.2032 32.333 32.8412C33.66 32.4252 34.376 30.8312 34.376 30.8312C34.376 30.8312 32.94 29.9132 31.613 30.3292C30.863 30.5642 30.316 31.1702 29.975 31.6572C30.168 31.0872 30.341 30.2652 30.1 29.4812C29.677 28.1012 28.14 27.3842 28.14 27.3842C28.14 27.3842 27.29 28.9042 27.713 30.2822C27.833 30.6702 28.041 31.0002 28.277 31.2822L28.275 31.2832C27.37 32.1072 25.875 32.4182 24.299 32.6382L23.999 32.6802L23.699 32.6382C22.123 32.4182 20.627 32.1052 19.721 31.2812C19.957 30.9992 20.168 30.6692 20.287 30.2812C20.71 28.9022 19.858 27.3842 19.858 27.3842Z"
      fill="#2C70C1" />
  </symbol>


  <symbol id="why_we2" viewBox="0 0 48 48">
    <g>
      <path
        d="M46.967 25.8202C50.602 12.7002 44.314 0.0751953 33.295 0.0751953C27.198 0.0751953 18.5 1.0752 14.898 9.7382C11.427 18.0842 0.5 10.5742 0 27.8202C0 42.0732 20.876 55.7362 26.668 42.8472C32.46 29.9582 43.333 38.9412 46.968 25.8202H46.967Z"
        fill="#E8F3FE" />
      <path fill-rule="evenodd" clip-rule="evenodd"
        d="M33 24C33 26.3869 32.0518 28.6761 30.364 30.364C28.6761 32.0518 26.3869 33 24 33C21.6131 33 19.3239 32.0518 17.636 30.364C15.9482 28.6761 15 26.3869 15 24C15 21.6131 15.9482 19.3239 17.636 17.636C19.3239 15.9482 21.6131 15 24 15C26.3869 15 28.6761 15.9482 30.364 17.636C32.0518 19.3239 33 21.6131 33 24ZM35 24C35 30.075 30.075 35 24 35C17.925 35 13 30.075 13 24C13 17.925 17.925 13 24 13C30.075 13 35 17.925 35 24ZM22.5 29L18 24.5L19.5 23L22.5 26L28.5 20L30 21.5L22.5 29Z"
        fill="#2C70C1" />
    </g>
  </symbol>

  <symbol id="why_we3" viewBox="0 0 48 48">
    <g>
      <path
        d="M33.295 48C44.314 48 50.602 35.375 46.967 22.253C43.333 9.13096 33.966 17.326 26.667 5.22596C18.654 -8.06404 1.387 6.33896 0 22.253C0.53 30.835 7.93 48 33.295 48Z"
        fill="#E8F3FE" />
      <path
        d="M20.374 12.9005L19.496 14.0305L19.494 14.0335C19.3864 14.1718 19.2413 14.2763 19.076 14.3345L17.74 14.8125L20.374 12.9005ZM20.374 12.9005C20.714 12.4605 21.246 12.2045 21.802 12.1955C21.9902 12.193 22.1776 12.219 22.358 12.2725H22.36L23.716 12.6625C23.886 12.7175 24.079 12.7175 24.248 12.6625L25.605 12.2725H25.606C26.342 12.0555 27.136 12.3125 27.59 12.8995L28.468 14.0305L28.471 14.0335C28.575 14.1635 28.714 14.2765 28.888 14.3345L30.224 14.8125C30.5728 14.9356 30.8767 15.1606 31.0961 15.4583C31.3156 15.7561 31.4406 16.1128 31.455 16.4825L31.499 17.8925C31.499 18.0815 31.555 18.2525 31.669 18.3975L32.477 19.5665L32.479 19.5685C32.913 20.1745 32.913 21.0185 32.479 21.6235L32.477 21.6265L31.665 22.8005L31.664 22.8025C31.5604 22.9482 31.5029 23.1217 31.499 23.3005L31.455 24.7105C31.4407 25.08 31.3158 25.4367 31.0965 25.7344C30.8773 26.0322 30.5736 26.2572 30.225 26.3805L20.374 12.9005ZM20.374 12.9005L30.225 26.3805L20.374 12.9005ZM16.51 16.4805V16.4815L16.466 17.8915C16.4621 18.0702 16.4046 18.2437 16.301 18.3895L16.3 18.3915L15.49 19.5615C15.2943 19.8754 15.1923 20.2386 15.196 20.6085C15.1997 20.9784 15.309 21.3396 15.511 21.6495L16.318 22.8155C16.4307 22.9594 16.4907 23.1377 16.488 23.3205L16.532 24.7305V24.7315C16.552 25.4745 17.046 26.1445 17.762 26.4015L18.462 26.6395L18.652 26.7035L18.582 26.8915L16.059 33.7185C16.0292 33.8018 16.0249 33.8922 16.0466 33.978C16.0683 34.0639 16.1151 34.1413 16.181 34.2005C16.321 34.3235 16.523 34.3545 16.695 34.2775C17.3285 33.983 18.0528 33.9513 18.7096 34.1892C19.3663 34.4272 19.9022 34.9155 20.2 35.5475C20.275 35.7095 20.44 35.8045 20.615 35.8045H20.628C20.827 35.7845 20.988 35.6725 21.045 35.5025L21.046 35.4975L23.57 28.6275L23.596 28.5535L23.666 28.5185L23.71 28.4975L23.722 28.4915L23.735 28.4865C23.9093 28.4307 24.0967 28.4307 24.271 28.4865L25.628 28.8765C26.365 29.0935 27.158 28.8365 27.613 28.2485L28.403 27.2265L28.62 26.9465L28.741 27.2785L30.76 32.7795L30.863 33.0595L30.565 33.0415C30.0631 33.0072 29.5595 33.0775 29.0861 33.2479C28.6128 33.4183 28.1799 33.6851 27.815 34.0315L27.601 34.2375L27.497 33.9585L26.357 30.8935C26.26 30.6395 25.997 30.5275 25.777 30.6145C25.53 30.7135 25.408 30.9795 25.492 31.1865L25.494 31.1925L27.052 35.4535C27.11 35.6135 27.279 35.7415 27.47 35.7605H27.483C27.5698 35.7603 27.6549 35.7358 27.7286 35.6899C27.8022 35.644 27.8616 35.5784 27.9 35.5005C28.1985 34.8695 28.7345 34.3823 29.391 34.1451C30.0475 33.9079 30.7711 33.94 31.404 34.2345L16.51 16.4805ZM16.509 16.4805L31.403 34.2345L16.509 16.4805ZM16.509 16.4805C16.5233 16.111 16.6482 15.7543 16.8675 15.4565C17.0868 15.1588 17.3904 14.9337 17.739 14.8105L16.509 16.4805ZM31.403 34.2345C31.487 34.2718 31.58 34.2842 31.6709 34.2704C31.7618 34.2566 31.8468 34.217 31.916 34.1565C31.9817 34.0974 32.0284 34.0201 32.0501 33.9345C32.0718 33.8489 32.0676 33.7587 32.038 33.6755L29.536 26.8255L29.468 26.6395L29.656 26.5745L30.226 26.3795L31.403 34.2345ZM31.403 34.2345L30.225 26.3795L31.403 34.2345ZM19.692 27.3775L19.477 27.1035L19.356 27.4305L17.338 32.8655L17.24 33.1285H17.784C18.203 33.1285 18.618 33.1915 19.01 33.3335C19.497 33.5235 19.931 33.7715 20.28 34.1165L20.495 34.3295L20.6 34.0445L22.377 29.2185L22.474 28.9555H22.194C22.13 28.9555 22.067 28.9615 22.014 28.9665H22.01C21.9619 28.9724 21.9135 28.9757 21.865 28.9765C21.5827 28.9757 21.3041 28.9117 21.0497 28.7892C20.7953 28.6667 20.5716 28.4887 20.395 28.2685L19.692 27.3775ZM28.138 20.6065C28.138 18.3445 26.272 16.4975 23.993 16.4975C21.715 16.4975 19.849 18.3445 19.849 20.6065C19.849 22.8685 21.715 24.7155 23.993 24.7155C26.272 24.7155 28.138 22.8685 28.138 20.6055V20.6065ZM23.53 19.5205C23.53 19.2605 23.726 19.0635 23.993 19.0635C24.26 19.0635 24.456 19.2605 24.456 19.5205V21.6945C24.456 21.9545 24.26 22.1515 23.993 22.1515C23.9322 22.1535 23.8715 22.1432 23.8148 22.121C23.7581 22.0988 23.7065 22.0653 23.6632 22.0226C23.6199 21.9798 23.5857 21.9286 23.5628 21.8722C23.5399 21.8158 23.5287 21.7553 23.53 21.6945V19.5205Z"
        fill="#2C70C1" stroke="#2C70C1" stroke-width="0.391" />
    </g>
  </symbol>

  <symbol id="why_we4" viewBox="0 0 48 48">
    <g>
      <path
        d="M1.033 22.2534C-2.602 35.3754 3.686 48.0004 14.705 48.0004C20.802 48.0004 29.5 47.0004 33.102 38.3374C36.573 29.9904 47.5 37.5004 48 20.2534C48 6.00042 27.124 -7.66358 21.332 5.22642C15.54 18.1154 4.667 9.13042 1.032 22.2534H1.033Z"
        fill="#E8F3FE" />
      <path
        d="M25.557 21.7236C25.609 21.7306 25.663 21.7336 25.719 21.7336C26.097 21.7336 26.509 21.5646 26.946 21.1366C27.319 20.7726 27.774 19.8716 27.572 18.6066C27.402 17.5566 26.597 15.3726 22.805 13.5586C22.826 13.9546 22.713 14.3266 22.559 14.6646C22.393 15.0276 22.158 15.3986 21.93 15.7566L21.913 15.7836C21.207 16.8936 20.439 18.1236 20.742 19.8976L25.557 21.7236ZM25.557 21.7236C25.92 19.2696 25.552 17.4716 24.852 15.6426C24.81 15.5285 24.7454 15.424 24.6622 15.3353C24.5791 15.2467 24.4789 15.1756 24.3677 15.1263C24.2566 15.0771 24.1366 15.0507 24.0151 15.0487C23.8935 15.0466 23.7727 15.0691 23.66 15.1146L23.653 15.1176C23.4308 15.2143 23.2546 15.3932 23.1614 15.6169C23.0682 15.8406 23.0652 16.0917 23.153 16.3176C23.804 18.0236 24.105 19.5806 23.683 21.8876L25.557 21.7236ZM25.557 21.7236L23.682 21.8876L25.557 21.7236ZM23.682 21.8876C23.4754 21.9537 23.2608 21.9914 23.044 21.9996C22.408 21.9996 21.898 21.7946 21.52 21.4496C21.138 21.0996 20.858 20.5786 20.742 19.8986L23.682 21.8876ZM13.957 26.9996L14.357 26.7006L14.345 26.6846L14.332 26.6696L14.253 26.5806C14.023 26.3206 13.863 26.1386 13.738 25.8786C13.604 25.6006 13.5 25.1996 13.5 24.4996V18.4996C13.5 18.1166 13.624 17.8796 13.774 17.7366C13.929 17.5896 14.158 17.4996 14.434 17.4996C14.712 17.4996 14.94 17.5896 15.095 17.7366C15.245 17.8796 15.37 18.1166 15.37 18.4996V22.6696C15.2612 22.746 15.1636 22.8372 15.08 22.9406C14.8725 23.2012 14.7296 23.5072 14.663 23.8336C14.506 24.5656 14.679 25.4806 15.496 26.3436L17.591 28.6846L17.594 28.6886C17.6756 28.7795 17.7754 28.8522 17.8869 28.9019C17.9985 28.9516 18.1193 28.9772 18.2414 28.977C18.3636 28.9768 18.4843 28.9508 18.5957 28.9008C18.7071 28.8507 18.8067 28.7778 18.888 28.6866C19.0451 28.5108 19.1319 28.2833 19.1319 28.0476C19.1319 27.8119 19.0451 27.5844 18.888 27.4086L18.886 27.4066L16.596 24.8626L16.593 24.8596C16.4711 24.7211 16.4045 24.5426 16.406 24.3581C16.4075 24.1736 16.4769 23.9961 16.601 23.8596H16.603C16.6783 23.7815 16.775 23.7276 16.881 23.7046C16.978 23.6866 17.202 23.6816 17.545 24.0376L19.832 26.5876L19.837 26.5926L19.842 26.5986C20.804 27.6106 21.587 28.8386 21.587 30.4996V34.4996H17.804V31.3356L17.707 31.2036C16.7448 29.9033 15.7795 28.6053 14.811 27.3096L14.481 26.8666L14.39 26.7436L14.366 26.7116L14.36 26.7036L14.358 26.7016L13.957 26.9996ZM31.408 24.8596L31.406 24.8626L29.114 27.4066L29.112 27.4086C28.9552 27.5843 28.8685 27.8116 28.8685 28.0471C28.8685 28.2826 28.9552 28.5099 29.112 28.6856C29.1931 28.777 29.2926 28.8501 29.404 28.9004C29.5154 28.9506 29.6361 28.9767 29.7583 28.977C29.8805 28.9772 30.0014 28.9517 30.113 28.902C30.2246 28.8523 30.3245 28.7796 30.406 28.6886L30.409 28.6846L32.504 26.3446C33.321 25.4806 33.494 24.5646 33.338 23.8336C33.2713 23.5072 33.1284 23.2012 32.921 22.9406C32.8375 22.8369 32.7399 22.7453 32.631 22.6686V18.4996C32.631 18.1166 32.755 17.8796 32.905 17.7366C33.06 17.5896 33.288 17.4996 33.565 17.4996C33.842 17.4996 34.071 17.5896 34.225 17.7366C34.375 17.8796 34.5 18.1166 34.5 18.4996V24.4996C34.5 25.1996 34.396 25.5996 34.262 25.8786C34.137 26.1386 33.976 26.3206 33.747 26.5806L33.668 26.6696L33.655 26.6846L33.643 26.7006L34.043 27.0006L33.643 26.7006V26.7016L33.641 26.7036L33.634 26.7116L33.61 26.7436L33.519 26.8666L33.189 27.3096C32.2231 28.6071 31.2577 29.9051 30.293 31.2036L30.196 31.3356V34.4996H26.413V30.4996C26.413 28.8386 27.196 27.6096 28.158 26.5986L28.163 26.5926L28.168 26.5876L30.455 24.0376C30.798 23.6806 31.022 23.6876 31.119 23.7046C31.259 23.7296 31.369 23.8256 31.401 23.8606C31.5241 23.9976 31.5928 24.175 31.5941 24.3593C31.5954 24.5435 31.5292 24.7218 31.408 24.8606V24.8596Z"
        fill="#2C70C1" stroke="#2C70C1" />
    </g>
  </symbol>

</svg>